<mxfile modified="2024-05-14T15:34:24.017Z" host="app.diagrams.net" agent="Mozilla/5.0 (Windows NT 10.0; Win64; x64) AppleWebKit/537.36 (KHTML, like Gecko) Chrome/125.0.0.0 Safari/537.36" etag="rzWMHs1Ymt0CYa86NG7t" version="24.4.0" type="device">
  <diagram id="l8hXMBHkgcEJcSW0mbfh" name="Page-1">
    <mxGraphModel dx="1235" dy="1536" grid="1" gridSize="10" guides="1" tooltips="1" connect="1" arrows="1" fold="1" page="1" pageScale="1" pageWidth="1169" pageHeight="827" math="0" shadow="0">
      <root>
        <mxCell id="0" />
        <mxCell id="1" parent="0" />
        <mxCell id="uikkB5nhJ-o_9xdI0NEF-7" value="" style="endArrow=classic;html=1;rounded=0;fontSize=14;fontFamily=Verdana;exitX=0.069;exitY=0.211;exitDx=0;exitDy=0;exitPerimeter=0;" parent="1" edge="1">
          <mxGeometry x="0.2757" y="1" width="50" height="50" relative="1" as="geometry">
            <mxPoint x="547.5899999999999" y="343.21000000000004" as="sourcePoint" />
            <mxPoint x="160" y="180" as="targetPoint" />
            <Array as="points" />
            <mxPoint as="offset" />
          </mxGeometry>
        </mxCell>
        <mxCell id="wIu9qGnsc0j5L39tCgiz-9" value="Diamond information" style="edgeLabel;html=1;align=center;verticalAlign=middle;resizable=0;points=[];rotation=15;fontSize=14;" vertex="1" connectable="0" parent="uikkB5nhJ-o_9xdI0NEF-7">
          <mxGeometry x="0.4748" y="-2" relative="1" as="geometry">
            <mxPoint as="offset" />
          </mxGeometry>
        </mxCell>
        <mxCell id="uikkB5nhJ-o_9xdI0NEF-17" value="Assessment Result" style="endArrow=classic;html=1;rounded=0;fontFamily=Verdana;fontSize=14;entryX=1;entryY=0.5;entryDx=0;entryDy=0;exitX=0.013;exitY=0.617;exitDx=0;exitDy=0;exitPerimeter=0;" parent="1" source="J0MKHP17XEGeqsNMkxCJ-7" target="J0MKHP17XEGeqsNMkxCJ-1" edge="1">
          <mxGeometry x="0.1214" y="-3" width="50" height="50" relative="1" as="geometry">
            <mxPoint x="1050" y="356" as="sourcePoint" />
            <mxPoint x="1050" y="496" as="targetPoint" />
            <Array as="points" />
            <mxPoint as="offset" />
          </mxGeometry>
        </mxCell>
        <mxCell id="uikkB5nhJ-o_9xdI0NEF-24" value="" style="endArrow=classic;html=1;rounded=0;exitX=0;exitY=1;exitDx=0;exitDy=0;entryX=0.75;entryY=0;entryDx=0;entryDy=0;fontFamily=Verdana;fontSize=14;" parent="1" source="J0MKHP17XEGeqsNMkxCJ-5" edge="1">
          <mxGeometry x="0.2512" y="3" width="50" height="50" relative="1" as="geometry">
            <mxPoint x="867.5" y="190" as="sourcePoint" />
            <mxPoint x="650" y="352" as="targetPoint" />
            <mxPoint as="offset" />
          </mxGeometry>
        </mxCell>
        <mxCell id="WLGhOc30dC_GoHN5ZvZs-14" value="Website Technician" style="edgeLabel;html=1;align=center;verticalAlign=middle;resizable=0;points=[];rotation=-30;fontSize=14;" parent="uikkB5nhJ-o_9xdI0NEF-24" vertex="1" connectable="0">
          <mxGeometry x="-0.1024" y="1" relative="1" as="geometry">
            <mxPoint x="-36" y="16" as="offset" />
          </mxGeometry>
        </mxCell>
        <mxCell id="J0MKHP17XEGeqsNMkxCJ-1" value="" style="ellipse;whiteSpace=wrap;html=1;aspect=fixed;" parent="1" vertex="1">
          <mxGeometry x="540" y="320" width="110" height="110" as="geometry" />
        </mxCell>
        <mxCell id="J0MKHP17XEGeqsNMkxCJ-2" value="Diamond&lt;div&gt;Assessment&lt;/div&gt;&lt;div&gt;System&lt;/div&gt;" style="text;html=1;align=center;verticalAlign=middle;whiteSpace=wrap;rounded=0;" parent="1" vertex="1">
          <mxGeometry x="557.5" y="340" width="75" height="70" as="geometry" />
        </mxCell>
        <mxCell id="J0MKHP17XEGeqsNMkxCJ-3" value="Guest" style="rounded=1;whiteSpace=wrap;html=1;fontSize=18;arcSize=0;" parent="1" vertex="1">
          <mxGeometry x="50" y="120" width="120" height="60" as="geometry" />
        </mxCell>
        <mxCell id="J0MKHP17XEGeqsNMkxCJ-4" value="Manager" style="rounded=1;whiteSpace=wrap;html=1;fontSize=18;arcSize=0;" parent="1" vertex="1">
          <mxGeometry x="530" y="-30" width="120" height="60" as="geometry" />
        </mxCell>
        <mxCell id="J0MKHP17XEGeqsNMkxCJ-5" value="Admin" style="rounded=1;whiteSpace=wrap;html=1;fontSize=18;arcSize=0;" parent="1" vertex="1">
          <mxGeometry x="950" y="130" width="120" height="60" as="geometry" />
        </mxCell>
        <mxCell id="J0MKHP17XEGeqsNMkxCJ-6" value="Customer" style="rounded=1;whiteSpace=wrap;html=1;fontSize=18;arcSize=0;" parent="1" vertex="1">
          <mxGeometry x="40" y="510" width="120" height="70" as="geometry" />
        </mxCell>
        <mxCell id="J0MKHP17XEGeqsNMkxCJ-7" value="Assessment&lt;div style=&quot;font-size: 18px;&quot;&gt;Staff&lt;/div&gt;" style="rounded=1;whiteSpace=wrap;html=1;fontSize=18;arcSize=0;" parent="1" vertex="1">
          <mxGeometry x="990" y="330" width="120" height="80" as="geometry" />
        </mxCell>
        <mxCell id="J0MKHP17XEGeqsNMkxCJ-8" value="Consulting Staff" style="rounded=1;whiteSpace=wrap;html=1;fontSize=18;arcSize=0;" parent="1" vertex="1">
          <mxGeometry x="940" y="530" width="120" height="70" as="geometry" />
        </mxCell>
        <mxCell id="J0MKHP17XEGeqsNMkxCJ-18" value="" style="curved=1;endArrow=classic;html=1;rounded=0;exitX=1;exitY=0.25;exitDx=0;exitDy=0;entryX=0.098;entryY=0.785;entryDx=0;entryDy=0;entryPerimeter=0;" parent="1" source="J0MKHP17XEGeqsNMkxCJ-6" target="J0MKHP17XEGeqsNMkxCJ-1" edge="1">
          <mxGeometry width="50" height="50" relative="1" as="geometry">
            <mxPoint x="630" y="410" as="sourcePoint" />
            <mxPoint x="860" y="310" as="targetPoint" />
            <Array as="points">
              <mxPoint x="280" y="450" />
            </Array>
          </mxGeometry>
        </mxCell>
        <mxCell id="J0MKHP17XEGeqsNMkxCJ-19" value="Assessment request" style="edgeLabel;html=1;align=center;verticalAlign=middle;resizable=0;points=[];fontSize=14;" parent="J0MKHP17XEGeqsNMkxCJ-18" vertex="1" connectable="0">
          <mxGeometry x="-0.0315" y="-1" relative="1" as="geometry">
            <mxPoint as="offset" />
          </mxGeometry>
        </mxCell>
        <mxCell id="J0MKHP17XEGeqsNMkxCJ-20" value="" style="curved=1;endArrow=classic;html=1;rounded=0;entryX=0.646;entryY=1.024;entryDx=0;entryDy=0;exitX=0.437;exitY=0.994;exitDx=0;exitDy=0;exitPerimeter=0;entryPerimeter=0;" parent="1" source="J0MKHP17XEGeqsNMkxCJ-1" target="J0MKHP17XEGeqsNMkxCJ-6" edge="1">
          <mxGeometry width="50" height="50" relative="1" as="geometry">
            <mxPoint x="330" y="440" as="sourcePoint" />
            <mxPoint x="380" y="390" as="targetPoint" />
            <Array as="points">
              <mxPoint x="540" y="590" />
              <mxPoint x="230" y="660" />
            </Array>
          </mxGeometry>
        </mxCell>
        <mxCell id="J0MKHP17XEGeqsNMkxCJ-21" value="List price" style="edgeLabel;html=1;align=center;verticalAlign=middle;resizable=0;points=[];fontSize=16;" parent="J0MKHP17XEGeqsNMkxCJ-20" vertex="1" connectable="0">
          <mxGeometry x="0.0697" relative="1" as="geometry">
            <mxPoint x="-58" as="offset" />
          </mxGeometry>
        </mxCell>
        <mxCell id="J0MKHP17XEGeqsNMkxCJ-22" value="" style="curved=1;endArrow=classic;html=1;rounded=0;exitX=0.287;exitY=0.967;exitDx=0;exitDy=0;exitPerimeter=0;entryX=1;entryY=0.75;entryDx=0;entryDy=0;" parent="1" source="J0MKHP17XEGeqsNMkxCJ-1" target="J0MKHP17XEGeqsNMkxCJ-6" edge="1">
          <mxGeometry width="50" height="50" relative="1" as="geometry">
            <mxPoint x="585" y="460" as="sourcePoint" />
            <mxPoint x="150" y="550" as="targetPoint" />
            <Array as="points">
              <mxPoint x="510" y="510" />
              <mxPoint x="290" y="570" />
            </Array>
          </mxGeometry>
        </mxCell>
        <mxCell id="J0MKHP17XEGeqsNMkxCJ-23" value="Inform service parameters" style="edgeLabel;html=1;align=center;verticalAlign=middle;resizable=0;points=[];fontSize=16;rotation=-5;" parent="J0MKHP17XEGeqsNMkxCJ-22" vertex="1" connectable="0">
          <mxGeometry x="0.0697" relative="1" as="geometry">
            <mxPoint x="-62" y="2" as="offset" />
          </mxGeometry>
        </mxCell>
        <mxCell id="WLGhOc30dC_GoHN5ZvZs-1" value="" style="curved=1;endArrow=classic;html=1;rounded=0;exitX=0.5;exitY=0;exitDx=0;exitDy=0;entryX=0.033;entryY=0.604;entryDx=0;entryDy=0;entryPerimeter=0;" parent="1" source="J0MKHP17XEGeqsNMkxCJ-6" target="J0MKHP17XEGeqsNMkxCJ-1" edge="1">
          <mxGeometry width="50" height="50" relative="1" as="geometry">
            <mxPoint x="160" y="430" as="sourcePoint" />
            <mxPoint x="210" y="380" as="targetPoint" />
            <Array as="points">
              <mxPoint x="280" y="386" />
            </Array>
          </mxGeometry>
        </mxCell>
        <mxCell id="WLGhOc30dC_GoHN5ZvZs-2" value="Opted Services" style="edgeLabel;html=1;align=center;verticalAlign=middle;resizable=0;points=[];fontSize=14;" parent="WLGhOc30dC_GoHN5ZvZs-1" vertex="1" connectable="0">
          <mxGeometry x="-0.054" y="-17" relative="1" as="geometry">
            <mxPoint as="offset" />
          </mxGeometry>
        </mxCell>
        <mxCell id="WLGhOc30dC_GoHN5ZvZs-3" value="" style="curved=1;endArrow=classic;html=1;rounded=0;entryX=0;entryY=0;entryDx=0;entryDy=0;fontFamily=Verdana;fontSize=16;" parent="1" target="J0MKHP17XEGeqsNMkxCJ-1" edge="1">
          <mxGeometry width="50" height="50" relative="1" as="geometry">
            <mxPoint x="170" y="160" as="sourcePoint" />
            <mxPoint x="220" y="110" as="targetPoint" />
            <Array as="points">
              <mxPoint x="250" y="160" />
              <mxPoint x="440" y="240" />
            </Array>
          </mxGeometry>
        </mxCell>
        <mxCell id="WLGhOc30dC_GoHN5ZvZs-4" value="Access site" style="edgeLabel;html=1;align=center;verticalAlign=middle;resizable=0;points=[];fontFamily=Verdana;fontSize=14;rotation=15;" parent="WLGhOc30dC_GoHN5ZvZs-3" vertex="1" connectable="0">
          <mxGeometry x="0.0138" y="-7" relative="1" as="geometry">
            <mxPoint x="-47" y="-31" as="offset" />
          </mxGeometry>
        </mxCell>
        <mxCell id="WLGhOc30dC_GoHN5ZvZs-6" value="" style="curved=1;endArrow=classic;html=1;rounded=0;entryX=0.273;entryY=0.071;entryDx=0;entryDy=0;entryPerimeter=0;exitX=0.042;exitY=1;exitDx=0;exitDy=0;exitPerimeter=0;" parent="1" source="J0MKHP17XEGeqsNMkxCJ-4" target="J0MKHP17XEGeqsNMkxCJ-1" edge="1">
          <mxGeometry width="50" height="50" relative="1" as="geometry">
            <mxPoint x="580" y="140" as="sourcePoint" />
            <mxPoint x="610" y="90" as="targetPoint" />
            <Array as="points">
              <mxPoint x="480" y="130" />
              <mxPoint x="490" y="270" />
            </Array>
          </mxGeometry>
        </mxCell>
        <mxCell id="WLGhOc30dC_GoHN5ZvZs-8" value="Approved&lt;div style=&quot;font-size: 14px;&quot;&gt;Documents&lt;/div&gt;" style="edgeLabel;html=1;align=center;verticalAlign=middle;resizable=0;points=[];fontSize=14;" parent="WLGhOc30dC_GoHN5ZvZs-6" vertex="1" connectable="0">
          <mxGeometry x="-0.1821" y="3" relative="1" as="geometry">
            <mxPoint x="5" y="68" as="offset" />
          </mxGeometry>
        </mxCell>
        <mxCell id="WLGhOc30dC_GoHN5ZvZs-10" value="" style="curved=1;endArrow=classic;html=1;rounded=0;exitX=0.76;exitY=0.036;exitDx=0;exitDy=0;entryX=0.908;entryY=1.02;entryDx=0;entryDy=0;exitPerimeter=0;entryPerimeter=0;" parent="1" source="J0MKHP17XEGeqsNMkxCJ-1" target="J0MKHP17XEGeqsNMkxCJ-4" edge="1">
          <mxGeometry width="50" height="50" relative="1" as="geometry">
            <mxPoint x="620" y="110" as="sourcePoint" />
            <mxPoint x="650" y="50" as="targetPoint" />
            <Array as="points">
              <mxPoint x="730" y="230" />
            </Array>
          </mxGeometry>
        </mxCell>
        <mxCell id="WLGhOc30dC_GoHN5ZvZs-11" value="Situational&lt;div&gt;Findings&lt;/div&gt;" style="edgeLabel;html=1;align=center;verticalAlign=middle;resizable=0;points=[];fontSize=14;" parent="WLGhOc30dC_GoHN5ZvZs-10" vertex="1" connectable="0">
          <mxGeometry x="0.6689" y="-2" relative="1" as="geometry">
            <mxPoint x="6" y="15" as="offset" />
          </mxGeometry>
        </mxCell>
        <mxCell id="WLGhOc30dC_GoHN5ZvZs-12" value="" style="curved=1;endArrow=classic;html=1;rounded=0;entryX=0.935;entryY=0.778;entryDx=0;entryDy=0;exitX=-0.003;exitY=0.109;exitDx=0;exitDy=0;exitPerimeter=0;entryPerimeter=0;" parent="1" source="J0MKHP17XEGeqsNMkxCJ-8" target="J0MKHP17XEGeqsNMkxCJ-1" edge="1">
          <mxGeometry width="50" height="50" relative="1" as="geometry">
            <mxPoint x="630" y="420" as="sourcePoint" />
            <mxPoint x="910" y="580" as="targetPoint" />
            <Array as="points">
              <mxPoint x="820" y="470" />
            </Array>
          </mxGeometry>
        </mxCell>
        <mxCell id="WLGhOc30dC_GoHN5ZvZs-13" value="Receipt handling" style="edgeLabel;html=1;align=center;verticalAlign=middle;resizable=0;points=[];fontSize=14;rotation=20;" parent="WLGhOc30dC_GoHN5ZvZs-12" vertex="1" connectable="0">
          <mxGeometry x="0.2398" y="14" relative="1" as="geometry">
            <mxPoint x="5" y="-11" as="offset" />
          </mxGeometry>
        </mxCell>
        <mxCell id="WLGhOc30dC_GoHN5ZvZs-15" value="Pain" style="rounded=0;whiteSpace=wrap;html=1;fontSize=18;" parent="1" vertex="1">
          <mxGeometry x="535" y="-810" width="120" height="60" as="geometry" />
        </mxCell>
        <mxCell id="wIu9qGnsc0j5L39tCgiz-2" value="" style="curved=1;endArrow=classic;html=1;rounded=0;entryX=0.447;entryY=1.027;entryDx=0;entryDy=0;entryPerimeter=0;exitX=0.033;exitY=0.305;exitDx=0;exitDy=0;exitPerimeter=0;" edge="1" parent="1" source="J0MKHP17XEGeqsNMkxCJ-1" target="J0MKHP17XEGeqsNMkxCJ-3">
          <mxGeometry width="50" height="50" relative="1" as="geometry">
            <mxPoint x="515" y="353" as="sourcePoint" />
            <mxPoint x="80" y="180" as="targetPoint" />
            <Array as="points">
              <mxPoint x="150" y="250" />
            </Array>
          </mxGeometry>
        </mxCell>
        <mxCell id="wIu9qGnsc0j5L39tCgiz-4" value="Blog share" style="edgeLabel;html=1;align=center;verticalAlign=middle;resizable=0;points=[];fontSize=14;rotation=15;" vertex="1" connectable="0" parent="wIu9qGnsc0j5L39tCgiz-2">
          <mxGeometry x="0.2155" y="-2" relative="1" as="geometry">
            <mxPoint x="-86" y="-46" as="offset" />
          </mxGeometry>
        </mxCell>
        <mxCell id="wIu9qGnsc0j5L39tCgiz-5" value="" style="curved=1;endArrow=classic;html=1;rounded=0;entryX=0.25;entryY=1;entryDx=0;entryDy=0;exitX=0.033;exitY=0.378;exitDx=0;exitDy=0;exitPerimeter=0;" edge="1" parent="1" source="J0MKHP17XEGeqsNMkxCJ-1" target="J0MKHP17XEGeqsNMkxCJ-3">
          <mxGeometry width="50" height="50" relative="1" as="geometry">
            <mxPoint x="540" y="360" as="sourcePoint" />
            <mxPoint x="590" y="310" as="targetPoint" />
            <Array as="points">
              <mxPoint x="150" y="320" />
            </Array>
          </mxGeometry>
        </mxCell>
        <mxCell id="wIu9qGnsc0j5L39tCgiz-6" value="Search results" style="edgeLabel;html=1;align=center;verticalAlign=middle;resizable=0;points=[];fontSize=14;rotation=10;" vertex="1" connectable="0" parent="wIu9qGnsc0j5L39tCgiz-5">
          <mxGeometry x="0.3167" y="-24" relative="1" as="geometry">
            <mxPoint x="16" y="-19" as="offset" />
          </mxGeometry>
        </mxCell>
        <mxCell id="wIu9qGnsc0j5L39tCgiz-7" value="" style="curved=1;endArrow=classic;html=1;rounded=0;entryX=0.16;entryY=1.053;entryDx=0;entryDy=0;entryPerimeter=0;exitX=0;exitY=0.5;exitDx=0;exitDy=0;" edge="1" parent="1" source="J0MKHP17XEGeqsNMkxCJ-1" target="J0MKHP17XEGeqsNMkxCJ-3">
          <mxGeometry width="50" height="50" relative="1" as="geometry">
            <mxPoint x="526" y="370" as="sourcePoint" />
            <mxPoint x="50" y="190" as="targetPoint" />
            <Array as="points">
              <mxPoint x="140" y="370" />
            </Array>
          </mxGeometry>
        </mxCell>
        <mxCell id="wIu9qGnsc0j5L39tCgiz-8" value="Price estimation" style="edgeLabel;html=1;align=center;verticalAlign=middle;resizable=0;points=[];fontSize=14;rotation=15;" vertex="1" connectable="0" parent="wIu9qGnsc0j5L39tCgiz-7">
          <mxGeometry x="0.3167" y="-24" relative="1" as="geometry">
            <mxPoint x="75" y="-22" as="offset" />
          </mxGeometry>
        </mxCell>
        <mxCell id="wIu9qGnsc0j5L39tCgiz-10" value="" style="endArrow=classic;startArrow=classic;html=1;rounded=0;exitX=0.5;exitY=0;exitDx=0;exitDy=0;entryX=0.508;entryY=1;entryDx=0;entryDy=0;entryPerimeter=0;" edge="1" parent="1" source="J0MKHP17XEGeqsNMkxCJ-1" target="J0MKHP17XEGeqsNMkxCJ-4">
          <mxGeometry width="50" height="50" relative="1" as="geometry">
            <mxPoint x="530" y="80" as="sourcePoint" />
            <mxPoint x="580" y="30" as="targetPoint" />
          </mxGeometry>
        </mxCell>
        <mxCell id="wIu9qGnsc0j5L39tCgiz-11" value="Process&lt;div style=&quot;font-size: 14px;&quot;&gt;Management&lt;/div&gt;" style="edgeLabel;html=1;align=center;verticalAlign=middle;resizable=0;points=[];fontSize=14;" vertex="1" connectable="0" parent="wIu9qGnsc0j5L39tCgiz-10">
          <mxGeometry x="0.1089" relative="1" as="geometry">
            <mxPoint as="offset" />
          </mxGeometry>
        </mxCell>
      </root>
    </mxGraphModel>
  </diagram>
</mxfile>
